<svg width="222" height="222" viewBox="0 0 222 222" fill="none" xmlns="http://www.w3.org/2000/svg">
<path d="M110.667 179.474L149.076 83.1058C150.683 79.0734 155.255 77.1075 159.287 78.7144C163.319 80.3213 165.285 84.8935 163.678 88.9255L126.997 180.957L110.667 179.474Z" fill="#90A4AE"/>
<path d="M125.806 95.6089C125.81 95.5998 125.814 95.5907 125.818 95.5816C125.814 95.582 125.81 95.5829 125.807 95.5833L125.806 95.6089Z" fill="#FFF9C5"/>
<path opacity="0.1" d="M159.286 78.7144C155.254 77.1075 150.682 79.0734 149.075 83.1058L139.018 108.34C141.58 108.749 144.129 109.449 146.638 110.449C149.147 111.449 151.488 112.694 153.623 114.152L163.678 88.9259C165.285 84.8935 163.319 80.3221 159.286 78.7144Z" fill="black"/>
<path d="M173.195 43.8208L144.214 46.9357L125.807 68.3735L125.81 95.5777L125.823 95.5725C125.821 95.5755 125.82 95.579 125.818 95.582C133.857 94.0891 142.807 94.8727 151.471 98.3254C160.079 101.756 167.077 107.296 171.883 113.854L171.968 114.007L187.108 99.0165L188.797 61.6103L173.195 43.8208Z" fill="#FFBD47" fill-opacity="0.4"/>
<path d="M200.093 196.42C189.546 179.562 153.826 167.155 111.384 167.155C68.9435 167.155 33.2248 179.561 22.6768 196.418L28.6023 196.42L41.4614 204.667L54.983 206.136L64.5126 200.63L79.6385 195.113L87.7558 197.318L105.024 206.136L116.414 204.299L131.111 198.815L141.765 195.481L155.359 198.815L166.382 206.136L184.017 203.932L200.093 196.42Z" fill="#FFBD47"/>
<path opacity="0.1" d="M185.254 203.354L200.093 196.42C189.546 179.562 153.826 167.155 111.384 167.155C101.626 167.155 92.2246 167.812 83.4019 169.027C127.184 174.048 163.802 186.639 185.254 203.354Z" fill="black"/>
<path d="M220.494 198.23C210.071 191.162 196.602 191.162 186.18 198.23C177.983 203.789 167.39 203.789 159.191 198.23C148.769 191.162 135.3 191.162 124.877 198.23C116.68 203.789 106.087 203.789 97.8887 198.23C87.4664 191.162 73.9972 191.162 63.5749 198.23C55.3774 203.789 44.7842 203.789 36.5863 198.23C26.1639 191.162 12.6948 191.162 2.27245 198.23C0.780883 199.242 0.391515 201.271 1.40309 202.762C2.41467 204.254 4.44432 204.643 5.93502 203.632C14.1321 198.072 24.7257 198.072 32.9237 203.632C43.3464 210.7 56.8156 210.7 67.2375 203.632C75.4346 198.072 86.0282 198.072 94.2262 203.632C104.649 210.7 118.118 210.7 128.54 203.632C136.737 198.072 147.331 198.072 155.529 203.632C160.74 207.165 166.713 208.933 172.686 208.933C178.659 208.933 184.632 207.165 189.843 203.632C198.04 198.072 208.634 198.072 216.832 203.632C218.323 204.644 220.352 204.254 221.363 202.762C222.375 201.271 221.986 199.242 220.494 198.23Z" fill="#4FC3F7"/>
<path d="M125.81 95.5777C121.001 88.9658 113.965 83.3777 105.302 79.9245C96.6347 76.4696 87.6797 75.6874 79.6387 77.1829C79.6387 77.1829 118.656 22.0834 173.195 43.8208C173.195 43.8208 144.594 51.4707 125.807 95.6094L125.81 95.5777Z" fill="#4299E1"/>
<path d="M171.987 113.982C180.025 112.49 188.975 113.274 197.639 116.726C206.307 120.181 213.345 125.773 218.153 132.389C218.153 132.389 227.733 65.5574 173.194 43.8199C173.194 43.8199 188.692 69.046 171.967 114.007L171.987 113.982Z" fill="#4299E1"/>
<path d="M37.2058 67.9759C47.0232 67.9759 54.9818 60.0173 54.9818 50.1998C54.9818 40.3824 47.0232 32.4238 37.2058 32.4238C27.3883 32.4238 19.4297 40.3824 19.4297 50.1998C19.4297 60.0173 27.3883 67.9759 37.2058 67.9759Z" fill="#FFBD47"/>
<path d="M16.0928 50.1981C16.0928 61.7994 25.5308 71.237 37.1317 71.237C48.7329 71.237 58.171 61.7989 58.171 50.1981C58.171 38.5973 48.7329 29.1592 37.1317 29.1592C25.5313 29.1592 16.0928 38.5973 16.0928 50.1981ZM37.1321 35.6853C45.1349 35.6853 51.6454 42.1957 51.6454 50.1981C51.6454 58.2005 45.1345 64.711 37.1321 64.711C29.1297 64.711 22.6188 58.201 22.6188 50.1981C22.6188 42.1953 29.1292 35.6853 37.1321 35.6853Z" fill="black"/>
<path d="M40.3947 22.8929V16.3292C40.3947 14.5272 38.9344 13.0664 37.1319 13.0664C35.3295 13.0664 33.8691 14.5272 33.8691 16.3292V22.8929C33.8691 24.695 35.3295 26.1557 37.1319 26.1557C38.9344 26.1557 40.3947 24.695 40.3947 22.8929Z" fill="black"/>
<path d="M58.7732 23.9418L54.132 28.583C52.8577 29.8573 52.8577 31.9234 54.132 33.1973C54.7694 33.8347 55.6041 34.153 56.4396 34.153C57.2743 34.153 58.1098 33.8347 58.7472 33.1977L63.3884 28.5565C64.6627 27.2822 64.6627 25.2161 63.3884 23.9418C62.1136 22.6679 60.048 22.6675 58.7732 23.9418Z" fill="black"/>
<path d="M71.0009 53.4609C72.8034 53.4609 74.2637 52.0001 74.2637 50.1981C74.2637 48.3961 72.8034 46.9353 71.0009 46.9353H64.4376C62.6351 46.9353 61.1748 48.3961 61.1748 50.1981C61.1748 52.0001 62.6351 53.4609 64.4376 53.4609H71.0009Z" fill="black"/>
<path d="M54.132 67.1989C52.8577 68.4733 52.8577 70.5394 54.132 71.8133L58.7732 76.4544C59.4106 77.0914 60.2457 77.4101 61.0808 77.4101C61.9159 77.4101 62.751 77.0918 63.3884 76.4544C64.6627 75.1801 64.6627 73.114 63.3884 71.8397L58.7472 67.1989C57.472 65.9246 55.4064 65.9246 54.132 67.1989Z" fill="black"/>
<path d="M33.8691 77.5038V84.0675C33.8691 85.8695 35.3295 87.3303 37.1319 87.3303C38.9344 87.3303 40.3947 85.8695 40.3947 84.0675V77.5038C40.3947 75.7017 38.9344 74.241 37.1319 74.241C35.3295 74.241 33.8691 75.7017 33.8691 77.5038Z" fill="black"/>
<path d="M10.8751 76.4544C11.5125 77.0914 12.3472 77.4101 13.1827 77.4101C14.0174 77.4101 14.8529 77.0918 15.4903 76.4544L20.1315 71.8133C21.4058 70.5389 21.4058 68.4728 20.1315 67.1989C18.8572 65.9246 16.7915 65.9246 15.5168 67.1989L10.8756 71.8397C9.6008 73.114 9.6008 75.1801 10.8751 76.4544Z" fill="black"/>
<path d="M3.2628 53.4609H9.82612C11.6286 53.4609 13.0889 52.0001 13.0889 50.1981C13.0889 48.3961 11.6286 46.9353 9.82612 46.9353H3.2628C1.46035 46.9353 0 48.3961 0 50.1981C0 52.0001 1.46035 53.4609 3.2628 53.4609Z" fill="black"/>
<path d="M15.4899 23.9418C14.2152 22.6674 12.1495 22.6674 10.8752 23.9418C9.60085 25.2161 9.60085 27.2822 10.8752 28.5565L15.5164 33.1977C16.1538 33.8347 16.9889 34.1529 17.824 34.1529C18.6586 34.1529 19.4942 33.8347 20.1316 33.1973C21.4059 31.9229 21.4059 29.8569 20.1316 28.583L15.4899 23.9418Z" fill="black"/>
<path d="M169.139 115.733C169.971 116.865 171.254 117.505 172.669 117.16C180.39 115.76 188.578 116.657 196.356 119.757C204.192 122.88 210.791 127.912 215.438 134.307C216.061 135.164 217.048 135.652 218.077 135.652C218.338 135.652 218.602 135.621 218.863 135.556C220.152 135.236 221.119 134.166 221.307 132.851C221.431 131.987 224.255 111.449 217.525 89.0729C217.007 87.3472 215.183 86.3694 213.461 86.888C211.735 87.407 210.757 89.2268 211.277 90.9521C215.205 104.014 215.634 116.643 215.393 124.347C210.736 119.84 205.1 116.216 198.772 113.695C191.579 110.828 184.053 109.609 176.727 110.096C176.782 109.927 176.833 109.762 176.887 109.594C179.437 101.805 181.338 93.7783 182.273 85.6297C183.129 78.1732 183.209 70.6412 182.27 63.1886C181.726 58.8726 180.801 54.6039 179.473 50.4604C179.464 50.4305 179.454 50.3984 179.444 50.3685C191.152 56.7116 200.152 66.0581 206.26 78.2417C207.068 79.8525 209.028 80.5033 210.639 79.696C212.25 78.8886 212.901 76.9279 212.094 75.3167C203.997 59.167 191.292 47.5506 174.323 40.7861C150.983 31.485 126.691 34.5445 104.078 49.634C87.1974 60.8975 77.3124 74.7127 76.8996 75.295C76.1317 76.379 76.0983 77.8207 76.8142 78.9389C77.53 80.0576 78.8508 80.6312 80.1589 80.388C87.932 78.9428 96.1824 79.8295 104.018 82.9527C111.741 86.0308 118.261 90.9616 122.897 97.2253C123.799 98.4437 125.115 99.193 126.659 98.7342C130.803 97.9997 135.078 97.9269 139.352 98.4984L113.283 163.908C112.625 163.903 111.97 163.891 111.31 163.891C96.2708 163.891 81.8985 165.389 68.5919 168.344C66.8328 168.734 65.7232 170.477 66.1143 172.236C66.505 173.995 68.2446 175.105 70.0067 174.714C82.6685 171.903 96.9511 170.417 111.31 170.417C118.115 170.417 124.925 170.74 131.698 171.413C131.722 171.416 131.746 171.415 131.771 171.417C144.366 172.666 156.169 175.069 166.588 178.559C179.026 182.724 188.629 188.213 194.265 194.297C191.421 195.18 188.671 196.49 186.106 198.229C177.908 203.789 167.315 203.789 159.118 198.229C148.695 191.161 135.225 191.161 124.804 198.229C116.606 203.789 106.013 203.789 97.8157 198.229C87.393 191.161 73.9238 191.161 63.5015 198.229C55.3044 203.789 44.7112 203.789 36.5137 198.229C33.9486 196.49 31.1983 195.18 28.3547 194.297C33.9828 188.222 43.5687 182.739 55.9821 178.575C57.6905 178.003 58.611 176.153 58.0382 174.444C57.4654 172.736 55.6166 171.815 53.9074 172.388C38.3144 177.617 26.995 184.709 20.9919 192.977C14.4806 192.625 7.88691 194.373 2.19989 198.229C0.708321 199.241 0.319387 201.27 1.33096 202.761C2.34211 204.253 4.3696 204.642 5.8629 203.631C10.7061 200.346 16.3862 199.003 21.9141 199.6C22.1132 199.643 22.313 199.671 22.5142 199.675C26.1339 200.159 29.6729 201.475 32.8516 203.631C43.2734 210.699 56.7422 210.7 67.1654 203.631C75.3633 198.072 85.9569 198.072 94.1536 203.631C104.576 210.699 118.045 210.7 128.467 203.631C136.665 198.072 147.259 198.072 155.456 203.631C160.667 207.165 166.64 208.933 172.613 208.933C178.586 208.933 184.559 207.165 189.77 203.631C192.942 201.481 196.472 200.165 200.083 199.679C200.297 199.675 200.51 199.646 200.722 199.599C206.245 199.006 211.92 200.349 216.759 203.631C218.251 204.642 220.279 204.253 221.29 202.761C222.302 201.27 221.913 199.241 220.422 198.229C214.735 194.372 208.14 192.625 201.63 192.977C195.62 184.699 184.282 177.602 168.663 172.371C158.967 169.124 148.147 166.78 136.642 165.389L160.019 106.736C163.545 109.285 166.623 112.311 169.139 115.733ZM131.086 91.6632C131.121 91.5895 131.157 91.5166 131.192 91.4429C134.231 85.0804 137.777 78.9303 141.913 73.2146C142.924 71.8176 142.635 69.709 141.183 68.6584C139.763 67.6303 137.652 67.9716 136.626 69.389C133.305 73.9777 130.355 78.8344 127.707 83.8403C126.75 85.6492 125.779 87.4799 124.958 89.356C124.944 89.3864 124.929 89.4163 124.915 89.4471C119.93 84.0527 113.63 79.7606 106.435 76.8937C100.106 74.371 93.5184 73.1253 87.0379 73.1929C91.3942 68.2937 98.5503 61.142 107.866 54.9546C117.102 48.8193 126.636 44.8142 136.201 43.0507C145.455 41.345 154.793 41.7452 164.059 44.2344C164.022 44.2548 163.982 44.2774 163.945 44.2978C158.932 47.0489 154.284 50.444 150.064 54.2977C148.418 55.801 146.813 57.3464 145.274 58.9589C144.031 60.2631 144.08 62.3288 145.384 63.5723C146.688 64.8159 148.754 64.7669 149.998 63.4626C154.18 59.0755 158.903 55.0635 164.058 51.8198C166.434 50.3243 168.914 48.9732 171.504 47.884C172.185 49.4272 173.07 51.7118 173.9 54.704C177.835 68.8778 176.772 84.1733 173.323 98.3271C172.581 101.371 171.724 104.388 170.752 107.366C170.742 107.397 170.731 107.429 170.721 107.46C166.281 102.762 160.828 98.9268 154.655 96.1661C154.571 96.1283 154.486 96.0906 154.402 96.0533C147.101 92.8309 139.067 91.2227 131.086 91.6632ZM154.372 103.273L129.894 164.688C128.382 164.557 126.858 164.445 125.326 164.346C123.633 164.23 121.937 164.145 120.241 164.076L145.832 99.8694C147.381 100.313 148.905 100.841 150.398 101.445C150.64 101.543 154.379 103.256 154.372 103.273Z" fill="black"/>
</svg>
