<svg width="200" height="200" viewBox="0 0 200 200" fill="none" xmlns="http://www.w3.org/2000/svg">
<g clip-path="url(#clip0)">
<path d="M179.135 178.787H4.4433C1.77301 178.787 -0.38916 176.622 -0.38916 173.953V30.3085C-0.38916 21.8398 6.47424 14.9764 14.9429 14.9764H168.635C177.103 14.9764 183.968 21.8398 183.968 30.3085V173.953C183.968 176.623 181.804 178.787 179.135 178.787Z" fill="#D0F4EF"/>
<path d="M183.966 30.3101V173.952C183.966 176.622 181.805 178.787 179.135 178.787H164.476C167.145 178.787 169.31 176.622 169.31 173.952V30.3101C169.31 21.8384 162.445 14.978 153.978 14.978H168.639C177.104 14.978 183.966 21.8384 183.966 30.3101Z" fill="#ABE0DA"/>
<path d="M183.966 30.3101V53.7582H-0.390625V30.3101C-0.390625 21.8384 6.47583 14.978 14.946 14.978H168.639C177.104 14.978 183.966 21.8384 183.966 30.3101Z" fill="#4299E1"/>
<path d="M183.966 30.3101V53.7582H169.31V30.3101C169.31 21.8384 162.445 14.978 153.978 14.978H168.639C177.104 14.978 183.966 21.8384 183.966 30.3101Z" fill="#4299E1"/>
<path d="M30.6594 71.6171H20.1705C18.5027 71.6171 17.1523 70.2651 17.1523 68.5989C17.1523 66.9326 18.5027 65.5807 20.1705 65.5807H30.6594C32.3272 65.5807 33.6776 66.9326 33.6776 68.5989C33.6776 70.2651 32.3272 71.6171 30.6594 71.6171Z" fill="#628FB1"/>
<path d="M62.8997 71.6171H52.4093C50.743 71.6171 49.3911 70.2651 49.3911 68.5989C49.3911 66.9326 50.743 65.5807 52.4093 65.5807H62.8997C64.566 65.5807 65.9179 66.9326 65.9179 68.5989C65.9179 70.2651 64.566 71.6171 62.8997 71.6171Z" fill="#628FB1"/>
<path d="M95.1384 71.6171H84.648C82.9818 71.6171 81.6313 70.2651 81.6313 68.5989C81.6313 66.9326 82.9818 65.5807 84.648 65.5807H95.1384C96.8062 65.5807 98.1566 66.9326 98.1566 68.5989C98.1566 70.2651 96.8062 71.6171 95.1384 71.6171Z" fill="#628FB1"/>
<path d="M127.379 71.6171H116.888C115.222 71.6171 113.87 70.2651 113.87 68.5989C113.87 66.9326 115.222 65.5807 116.888 65.5807H127.379C129.045 65.5807 130.397 66.9326 130.397 68.5989C130.397 70.2651 129.045 71.6171 127.379 71.6171Z" fill="#628FB1"/>
<path d="M159.618 71.6171H149.129C147.461 71.6171 146.111 70.2651 146.111 68.5989C146.111 66.9326 147.461 65.5807 149.129 65.5807H159.618C161.286 65.5807 162.636 66.9326 162.636 68.5989C162.636 70.2651 161.286 71.6171 159.618 71.6171Z" fill="#628FB1"/>
<path d="M30.6594 86.7935H20.1705C18.5027 86.7935 17.1523 85.4415 17.1523 83.7753C17.1523 82.109 18.5027 80.7571 20.1705 80.7571H30.6594C32.3272 80.7571 33.6776 82.109 33.6776 83.7753C33.6776 85.4415 32.3272 86.7935 30.6594 86.7935Z" fill="#628FB1"/>
<path d="M62.8997 86.7935H52.4093C50.743 86.7935 49.3911 85.4415 49.3911 83.7753C49.3911 82.109 50.743 80.7571 52.4093 80.7571H62.8997C64.566 80.7571 65.9179 82.109 65.9179 83.7753C65.9179 85.4415 64.566 86.7935 62.8997 86.7935Z" fill="#628FB1"/>
<path d="M95.1384 86.7935H84.648C82.9818 86.7935 81.6313 85.4415 81.6313 83.7753C81.6313 82.109 82.9818 80.7571 84.648 80.7571H95.1384C96.8062 80.7571 98.1566 82.109 98.1566 83.7753C98.1566 85.4415 96.8062 86.7935 95.1384 86.7935Z" fill="#628FB1"/>
<path d="M127.379 86.7935H116.888C115.222 86.7935 113.87 85.4415 113.87 83.7753C113.87 82.109 115.222 80.7571 116.888 80.7571H127.379C129.045 80.7571 130.397 82.109 130.397 83.7753C130.397 85.4415 129.045 86.7935 127.379 86.7935Z" fill="#628FB1"/>
<path d="M159.618 86.7935H149.129C147.461 86.7935 146.111 85.4415 146.111 83.7753C146.111 82.109 147.461 80.7571 149.129 80.7571H159.618C161.286 80.7571 162.636 82.109 162.636 83.7753C162.636 85.4415 161.286 86.7935 159.618 86.7935Z" fill="#628FB1"/>
<path d="M76.4054 162.024C74.1364 162.024 71.8659 161.159 70.1355 159.427L54.6173 143.909C51.1536 140.446 51.1536 134.833 54.6173 131.369C58.0796 127.907 63.6948 127.907 67.157 131.369L76.4054 140.617L112.631 104.39C116.095 100.929 121.709 100.928 125.171 104.39C128.635 107.854 128.635 113.467 125.171 116.931L82.6752 159.427C80.9433 161.159 78.6743 162.024 76.4054 162.024Z" fill="#4299E1"/>
<path d="M32.5335 27.1957H26.9274C24.5455 27.1957 22.6138 25.2655 22.6138 22.8821V8.21838C22.6138 5.83649 24.5455 3.90625 26.9274 3.90625H32.5335C34.9154 3.90625 36.8472 5.83649 36.8472 8.21838V22.8821C36.8472 25.2655 34.9154 27.1957 32.5335 27.1957Z" fill="#FFBD47"/>
<path d="M72.8196 27.1957H67.212C64.8301 27.1957 62.8999 25.2655 62.8999 22.8821V8.21838C62.8999 5.83649 64.8301 3.90625 67.212 3.90625H72.8196C75.2015 3.90625 77.1318 5.83649 77.1318 8.21838V22.8821C77.1318 25.2655 75.2015 27.1957 72.8196 27.1957Z" fill="#FFBD47"/>
<path d="M113.106 27.1957H107.498C105.116 27.1957 103.186 25.2655 103.186 22.8821V8.21838C103.186 5.83649 105.116 3.90625 107.498 3.90625H113.106C115.488 3.90625 117.418 5.83649 117.418 8.21838V22.8821C117.418 25.2655 115.486 27.1957 113.106 27.1957Z" fill="#FFBD47"/>
<path d="M153.39 27.1957H147.784C145.402 27.1957 143.471 25.2655 143.471 22.8821V8.21838C143.471 5.83649 145.402 3.90625 147.784 3.90625H153.39C155.772 3.90625 157.704 5.83649 157.704 8.21838V22.8821C157.704 25.2655 155.772 27.1957 153.39 27.1957Z" fill="#FFBD47"/>
<path d="M199.609 159.517C199.609 179.965 183.034 196.541 162.585 196.541C142.137 196.541 125.562 179.965 125.562 159.517C125.562 139.07 142.137 122.495 162.585 122.495C183.034 122.495 199.609 139.07 199.609 159.517Z" fill="#38AAFF"/>
<path d="M189.212 159.517C189.212 174.223 177.29 186.143 162.586 186.143C147.881 186.143 135.959 174.223 135.959 159.517C135.959 144.812 147.881 132.892 162.586 132.892C177.29 132.892 189.212 144.812 189.212 159.517Z" fill="#D0F4EF"/>
<path d="M162.586 144.101C160.919 144.101 159.567 142.751 159.567 141.083V137.407C159.567 135.741 160.919 134.389 162.586 134.389C164.252 134.389 165.604 135.741 165.604 137.407V141.083C165.604 142.751 164.252 144.101 162.586 144.101Z" fill="#628FB1"/>
<path d="M162.586 184.647C160.919 184.647 159.567 183.295 159.567 181.628V177.953C159.567 176.285 160.919 174.934 162.586 174.934C164.252 174.934 165.604 176.285 165.604 177.953V181.628C165.604 183.295 164.252 184.647 162.586 184.647Z" fill="#628FB1"/>
<path d="M184.695 162.535H181.02C179.353 162.535 178.001 161.185 178.001 159.517C178.001 157.851 179.353 156.5 181.02 156.5H184.695C186.363 156.5 187.714 157.851 187.714 159.517C187.714 161.185 186.363 162.535 184.695 162.535Z" fill="#628FB1"/>
<path d="M169.238 162.535H162.586C160.919 162.535 159.567 161.185 159.567 159.517V153.404C159.567 151.737 160.919 150.386 162.586 150.386C164.252 150.386 165.604 151.738 165.604 153.404V156.5H169.237C170.905 156.5 172.255 157.851 172.255 159.517C172.255 161.185 170.905 162.535 169.238 162.535Z" fill="#FFBD47"/>
<path d="M144.152 162.535H140.476C138.808 162.535 137.458 161.185 137.458 159.517C137.458 157.851 138.808 156.5 140.476 156.5H144.152C145.818 156.5 147.17 157.851 147.17 159.517C147.17 161.185 145.818 162.535 144.152 162.535Z" fill="#628FB1"/>
</g>
<defs>
<clipPath id="clip0">
<rect width="200" height="200" fill="white"/>
</clipPath>
</defs>
</svg>
