<svg width="417" height="48" viewBox="0 0 417 48" fill="none" xmlns="http://www.w3.org/2000/svg">
<rect x="0.5" y="0.5" width="416" height="47" rx="4.5" stroke="#475993"/>
<path d="M150.994 29V19.2H152.478V27.824H156.93V29H150.994ZM162.147 29.168C161.176 29.168 160.327 28.9533 159.599 28.524C158.871 28.0947 158.302 27.502 157.891 26.746C157.48 25.9807 157.275 25.0987 157.275 24.1C157.275 23.1013 157.48 22.224 157.891 21.468C158.302 20.7027 158.871 20.1053 159.599 19.676C160.327 19.2467 161.176 19.032 162.147 19.032C163.118 19.032 163.967 19.2467 164.695 19.676C165.423 20.1053 165.988 20.7027 166.389 21.468C166.8 22.224 167.005 23.1013 167.005 24.1C167.005 25.0987 166.8 25.9807 166.389 26.746C165.988 27.502 165.423 28.0947 164.695 28.524C163.967 28.9533 163.118 29.168 162.147 29.168ZM162.147 27.838C162.819 27.838 163.402 27.6887 163.897 27.39C164.401 27.0913 164.793 26.662 165.073 26.102C165.353 25.542 165.493 24.8747 165.493 24.1C165.493 23.3253 165.353 22.658 165.073 22.098C164.793 21.538 164.401 21.1087 163.897 20.81C163.402 20.5113 162.819 20.362 162.147 20.362C161.475 20.362 160.887 20.5113 160.383 20.81C159.879 21.1087 159.487 21.538 159.207 22.098C158.936 22.658 158.801 23.3253 158.801 24.1C158.801 24.8747 158.936 25.542 159.207 26.102C159.487 26.662 159.879 27.0913 160.383 27.39C160.887 27.6887 161.475 27.838 162.147 27.838ZM172.914 29.168C171.99 29.168 171.183 28.958 170.492 28.538C169.801 28.118 169.265 27.53 168.882 26.774C168.499 26.018 168.308 25.136 168.308 24.128C168.308 23.1293 168.504 22.2473 168.896 21.482C169.288 20.7167 169.843 20.1193 170.562 19.69C171.29 19.2513 172.149 19.032 173.138 19.032C174.258 19.032 175.191 19.3027 175.938 19.844C176.685 20.3853 177.17 21.132 177.394 22.084H175.714C175.565 21.5613 175.271 21.1507 174.832 20.852C174.393 20.5533 173.829 20.404 173.138 20.404C172.111 20.404 171.304 20.7353 170.716 21.398C170.128 22.0607 169.834 22.9753 169.834 24.142C169.834 25.3087 170.123 26.2187 170.702 26.872C171.281 27.5253 172.051 27.852 173.012 27.852C173.983 27.852 174.711 27.5767 175.196 27.026C175.691 26.4753 175.98 25.7427 176.064 24.828H173.404V23.68H177.562V29H176.204L176.078 27.558C175.751 28.0713 175.341 28.468 174.846 28.748C174.351 29.028 173.707 29.168 172.914 29.168ZM179.363 29V19.2H180.847V29H179.363ZM182.836 29V19.2H184.32L189.234 26.578V19.2H190.718V29H189.234L184.32 21.622V29H182.836ZM198.236 29.014L195.59 19.2H197.186L199.132 27.32L201.372 19.2H203.01L205.18 27.32L207.126 19.2H208.722L206.034 29H204.298L202.156 21.314L199.944 29L198.236 29.014ZM210.084 29V19.2H211.568V29H210.084ZM215.853 29V20.404H212.955V19.2H220.221V20.404H217.337V29H215.853ZM221.609 29V19.2H223.093V23.4H227.839V19.2H229.323V29H227.839V24.618H223.093V29H221.609ZM234.844 29V19.2H240.99V20.404H236.328V23.498H240.192V24.688H236.328V29H234.844ZM240.776 29L244.388 19.2H246.012L249.596 29H248.028L247.188 26.606H243.184L242.344 29H240.776ZM243.604 25.43H246.768L245.186 20.964L243.604 25.43ZM254.77 29.168C253.8 29.168 252.96 28.958 252.25 28.538C251.55 28.1087 251.009 27.516 250.626 26.76C250.244 25.9947 250.052 25.1127 250.052 24.114C250.052 23.106 250.244 22.224 250.626 21.468C251.009 20.7027 251.55 20.1053 252.25 19.676C252.96 19.2467 253.8 19.032 254.77 19.032C255.918 19.032 256.856 19.312 257.584 19.872C258.312 20.432 258.774 21.216 258.97 22.224H257.318C257.188 21.6547 256.908 21.202 256.478 20.866C256.049 20.53 255.475 20.362 254.756 20.362C253.776 20.362 253.002 20.698 252.432 21.37C251.863 22.0327 251.578 22.9473 251.578 24.114C251.578 25.2713 251.863 26.1813 252.432 26.844C253.002 27.5067 253.776 27.838 254.756 27.838C255.475 27.838 256.049 27.6793 256.478 27.362C256.908 27.0447 257.188 26.6107 257.318 26.06H258.97C258.774 27.0307 258.312 27.7913 257.584 28.342C256.856 28.8927 255.918 29.168 254.77 29.168ZM260.601 29V19.2H266.831V20.404H262.085V23.456H266.411V24.632H262.085V27.796H266.831V29H260.601ZM268.599 29V19.2H272.295C273.313 19.2 274.083 19.438 274.605 19.914C275.128 20.39 275.389 20.9873 275.389 21.706C275.389 22.3313 275.221 22.8307 274.885 23.204C274.549 23.568 274.143 23.8153 273.667 23.946C274.041 24.0207 274.372 24.17 274.661 24.394C274.96 24.618 275.193 24.898 275.361 25.234C275.529 25.57 275.613 25.934 275.613 26.326C275.613 26.83 275.487 27.2873 275.235 27.698C274.993 28.0993 274.633 28.4167 274.157 28.65C273.681 28.8833 273.098 29 272.407 29H268.599ZM270.083 23.4H272.113C272.683 23.4 273.117 23.2693 273.415 23.008C273.714 22.7373 273.863 22.3687 273.863 21.902C273.863 21.4447 273.714 21.0807 273.415 20.81C273.126 20.5393 272.683 20.404 272.085 20.404H270.083V23.4ZM270.083 27.782H272.211C272.809 27.782 273.271 27.642 273.597 27.362C273.933 27.082 274.101 26.69 274.101 26.186C274.101 25.682 273.929 25.2853 273.583 24.996C273.238 24.6973 272.771 24.548 272.183 24.548H270.083V27.782ZM281.762 29.168C280.791 29.168 279.942 28.9533 279.214 28.524C278.486 28.0947 277.917 27.502 277.506 26.746C277.095 25.9807 276.89 25.0987 276.89 24.1C276.89 23.1013 277.095 22.224 277.506 21.468C277.917 20.7027 278.486 20.1053 279.214 19.676C279.942 19.2467 280.791 19.032 281.762 19.032C282.733 19.032 283.582 19.2467 284.31 19.676C285.038 20.1053 285.603 20.7027 286.004 21.468C286.415 22.224 286.62 23.1013 286.62 24.1C286.62 25.0987 286.415 25.9807 286.004 26.746C285.603 27.502 285.038 28.0947 284.31 28.524C283.582 28.9533 282.733 29.168 281.762 29.168ZM281.762 27.838C282.434 27.838 283.017 27.6887 283.512 27.39C284.016 27.0913 284.408 26.662 284.688 26.102C284.968 25.542 285.108 24.8747 285.108 24.1C285.108 23.3253 284.968 22.658 284.688 22.098C284.408 21.538 284.016 21.1087 283.512 20.81C283.017 20.5113 282.434 20.362 281.762 20.362C281.09 20.362 280.502 20.5113 279.998 20.81C279.494 21.1087 279.102 21.538 278.822 22.098C278.551 22.658 278.416 23.3253 278.416 24.1C278.416 24.8747 278.551 25.542 278.822 26.102C279.102 26.662 279.494 27.0913 279.998 27.39C280.502 27.6887 281.09 27.838 281.762 27.838ZM292.795 29.168C291.825 29.168 290.975 28.9533 290.247 28.524C289.519 28.0947 288.95 27.502 288.539 26.746C288.129 25.9807 287.923 25.0987 287.923 24.1C287.923 23.1013 288.129 22.224 288.539 21.468C288.95 20.7027 289.519 20.1053 290.247 19.676C290.975 19.2467 291.825 19.032 292.795 19.032C293.766 19.032 294.615 19.2467 295.343 19.676C296.071 20.1053 296.636 20.7027 297.037 21.468C297.448 22.224 297.653 23.1013 297.653 24.1C297.653 25.0987 297.448 25.9807 297.037 26.746C296.636 27.502 296.071 28.0947 295.343 28.524C294.615 28.9533 293.766 29.168 292.795 29.168ZM292.795 27.838C293.467 27.838 294.051 27.6887 294.545 27.39C295.049 27.0913 295.441 26.662 295.721 26.102C296.001 25.542 296.141 24.8747 296.141 24.1C296.141 23.3253 296.001 22.658 295.721 22.098C295.441 21.538 295.049 21.1087 294.545 20.81C294.051 20.5113 293.467 20.362 292.795 20.362C292.123 20.362 291.535 20.5113 291.031 20.81C290.527 21.1087 290.135 21.538 289.855 22.098C289.585 22.658 289.449 23.3253 289.449 24.1C289.449 24.8747 289.585 25.542 289.855 26.102C290.135 26.662 290.527 27.0913 291.031 27.39C291.535 27.6887 292.123 27.838 292.795 27.838ZM299.307 29V19.2H300.791V23.4L304.655 19.2H306.489L302.863 23.106L306.573 29H304.767L301.799 24.24L300.791 25.332V29H299.307Z" fill="#475993"/>
<path d="M130.766 12H113.234C111.448 12 110 13.4479 110 15.234V32.7658C110 34.552 111.448 35.9999 113.234 35.9999H121.881L121.896 27.4236H119.667C119.378 27.4236 119.143 27.1895 119.142 26.8999L119.131 24.1354C119.13 23.8443 119.366 23.6077 119.657 23.6077H121.881V20.9365C121.881 17.8366 123.774 16.1487 126.539 16.1487H128.809C129.099 16.1487 129.334 16.3841 129.334 16.6744V19.0055C129.334 19.2957 129.099 19.531 128.809 19.5312L127.416 19.5319C125.912 19.5319 125.621 20.2465 125.621 21.2952V23.6078H128.926C129.241 23.6078 129.485 23.8827 129.448 24.1954L129.12 26.9599C129.089 27.2244 128.864 27.4237 128.598 27.4237H125.636L125.621 36H130.766C132.552 36 134 34.5521 134 32.766V15.234C134 13.4479 132.552 12 130.766 12Z" fill="#475993"/>
</svg>
