<svg width="417" height="48" viewBox="0 0 417 48" fill="none" xmlns="http://www.w3.org/2000/svg">
<rect x="0.5" y="0.5" width="416" height="47" rx="4.5" stroke="#FF1B1B"/>
<path d="M157.994 30V20.2H159.478V28.824H163.93V30H157.994ZM169.147 30.168C168.176 30.168 167.327 29.9533 166.599 29.524C165.871 29.0947 165.302 28.502 164.891 27.746C164.48 26.9807 164.275 26.0987 164.275 25.1C164.275 24.1013 164.48 23.224 164.891 22.468C165.302 21.7027 165.871 21.1053 166.599 20.676C167.327 20.2467 168.176 20.032 169.147 20.032C170.118 20.032 170.967 20.2467 171.695 20.676C172.423 21.1053 172.988 21.7027 173.389 22.468C173.8 23.224 174.005 24.1013 174.005 25.1C174.005 26.0987 173.8 26.9807 173.389 27.746C172.988 28.502 172.423 29.0947 171.695 29.524C170.967 29.9533 170.118 30.168 169.147 30.168ZM169.147 28.838C169.819 28.838 170.402 28.6887 170.897 28.39C171.401 28.0913 171.793 27.662 172.073 27.102C172.353 26.542 172.493 25.8747 172.493 25.1C172.493 24.3253 172.353 23.658 172.073 23.098C171.793 22.538 171.401 22.1087 170.897 21.81C170.402 21.5113 169.819 21.362 169.147 21.362C168.475 21.362 167.887 21.5113 167.383 21.81C166.879 22.1087 166.487 22.538 166.207 23.098C165.936 23.658 165.801 24.3253 165.801 25.1C165.801 25.8747 165.936 26.542 166.207 27.102C166.487 27.662 166.879 28.0913 167.383 28.39C167.887 28.6887 168.475 28.838 169.147 28.838ZM179.914 30.168C178.99 30.168 178.183 29.958 177.492 29.538C176.801 29.118 176.265 28.53 175.882 27.774C175.499 27.018 175.308 26.136 175.308 25.128C175.308 24.1293 175.504 23.2473 175.896 22.482C176.288 21.7167 176.843 21.1193 177.562 20.69C178.29 20.2513 179.149 20.032 180.138 20.032C181.258 20.032 182.191 20.3027 182.938 20.844C183.685 21.3853 184.17 22.132 184.394 23.084H182.714C182.565 22.5613 182.271 22.1507 181.832 21.852C181.393 21.5533 180.829 21.404 180.138 21.404C179.111 21.404 178.304 21.7353 177.716 22.398C177.128 23.0607 176.834 23.9753 176.834 25.142C176.834 26.3087 177.123 27.2187 177.702 27.872C178.281 28.5253 179.051 28.852 180.012 28.852C180.983 28.852 181.711 28.5767 182.196 28.026C182.691 27.4753 182.98 26.7427 183.064 25.828H180.404V24.68H184.562V30H183.204L183.078 28.558C182.751 29.0713 182.341 29.468 181.846 29.748C181.351 30.028 180.707 30.168 179.914 30.168ZM186.363 30V20.2H187.847V30H186.363ZM189.836 30V20.2H191.32L196.234 27.578V20.2H197.718V30H196.234L191.32 22.622V30H189.836ZM205.236 30.014L202.59 20.2H204.186L206.132 28.32L208.372 20.2H210.01L212.18 28.32L214.126 20.2H215.722L213.034 30H211.298L209.156 22.314L206.944 30L205.236 30.014ZM217.084 30V20.2H218.568V30H217.084ZM222.853 30V21.404H219.955V20.2H227.221V21.404H224.337V30H222.853ZM228.609 30V20.2H230.093V24.4H234.839V20.2H236.323V30H234.839V25.618H230.093V30H228.609ZM246.1 30.168C245.176 30.168 244.368 29.958 243.678 29.538C242.987 29.118 242.45 28.53 242.068 27.774C241.685 27.018 241.494 26.136 241.494 25.128C241.494 24.1293 241.69 23.2473 242.082 22.482C242.474 21.7167 243.029 21.1193 243.748 20.69C244.476 20.2513 245.334 20.032 246.324 20.032C247.444 20.032 248.377 20.3027 249.124 20.844C249.87 21.3853 250.356 22.132 250.58 23.084H248.9C248.75 22.5613 248.456 22.1507 248.018 21.852C247.579 21.5533 247.014 21.404 246.324 21.404C245.297 21.404 244.49 21.7353 243.902 22.398C243.314 23.0607 243.02 23.9753 243.02 25.142C243.02 26.3087 243.309 27.2187 243.888 27.872C244.466 28.5253 245.236 28.852 246.198 28.852C247.168 28.852 247.896 28.5767 248.382 28.026C248.876 27.4753 249.166 26.7427 249.25 25.828H246.59V24.68H250.748V30H249.39L249.264 28.558C248.937 29.0713 248.526 29.468 248.032 29.748C247.537 30.028 246.893 30.168 246.1 30.168ZM257.071 30.168C256.1 30.168 255.251 29.9533 254.523 29.524C253.795 29.0947 253.225 28.502 252.815 27.746C252.404 26.9807 252.199 26.0987 252.199 25.1C252.199 24.1013 252.404 23.224 252.815 22.468C253.225 21.7027 253.795 21.1053 254.523 20.676C255.251 20.2467 256.1 20.032 257.071 20.032C258.041 20.032 258.891 20.2467 259.619 20.676C260.347 21.1053 260.911 21.7027 261.313 22.468C261.723 23.224 261.929 24.1013 261.929 25.1C261.929 26.0987 261.723 26.9807 261.313 27.746C260.911 28.502 260.347 29.0947 259.619 29.524C258.891 29.9533 258.041 30.168 257.071 30.168ZM257.071 28.838C257.743 28.838 258.326 28.6887 258.821 28.39C259.325 28.0913 259.717 27.662 259.997 27.102C260.277 26.542 260.417 25.8747 260.417 25.1C260.417 24.3253 260.277 23.658 259.997 23.098C259.717 22.538 259.325 22.1087 258.821 21.81C258.326 21.5113 257.743 21.362 257.071 21.362C256.399 21.362 255.811 21.5113 255.307 21.81C254.803 22.1087 254.411 22.538 254.131 23.098C253.86 23.658 253.725 24.3253 253.725 25.1C253.725 25.8747 253.86 26.542 254.131 27.102C254.411 27.662 254.803 28.0913 255.307 28.39C255.811 28.6887 256.399 28.838 257.071 28.838ZM268.104 30.168C267.133 30.168 266.284 29.9533 265.556 29.524C264.828 29.0947 264.259 28.502 263.848 27.746C263.437 26.9807 263.232 26.0987 263.232 25.1C263.232 24.1013 263.437 23.224 263.848 22.468C264.259 21.7027 264.828 21.1053 265.556 20.676C266.284 20.2467 267.133 20.032 268.104 20.032C269.075 20.032 269.924 20.2467 270.652 20.676C271.38 21.1053 271.945 21.7027 272.346 22.468C272.757 23.224 272.962 24.1013 272.962 25.1C272.962 26.0987 272.757 26.9807 272.346 27.746C271.945 28.502 271.38 29.0947 270.652 29.524C269.924 29.9533 269.075 30.168 268.104 30.168ZM268.104 28.838C268.776 28.838 269.359 28.6887 269.854 28.39C270.358 28.0913 270.75 27.662 271.03 27.102C271.31 26.542 271.45 25.8747 271.45 25.1C271.45 24.3253 271.31 23.658 271.03 23.098C270.75 22.538 270.358 22.1087 269.854 21.81C269.359 21.5113 268.776 21.362 268.104 21.362C267.432 21.362 266.844 21.5113 266.34 21.81C265.836 22.1087 265.444 22.538 265.164 23.098C264.893 23.658 264.758 24.3253 264.758 25.1C264.758 25.8747 264.893 26.542 265.164 27.102C265.444 27.662 265.836 28.0913 266.34 28.39C266.844 28.6887 267.432 28.838 268.104 28.838ZM278.871 30.168C277.947 30.168 277.14 29.958 276.449 29.538C275.758 29.118 275.222 28.53 274.839 27.774C274.456 27.018 274.265 26.136 274.265 25.128C274.265 24.1293 274.461 23.2473 274.853 22.482C275.245 21.7167 275.8 21.1193 276.519 20.69C277.247 20.2513 278.106 20.032 279.095 20.032C280.215 20.032 281.148 20.3027 281.895 20.844C282.642 21.3853 283.127 22.132 283.351 23.084H281.671C281.522 22.5613 281.228 22.1507 280.789 21.852C280.35 21.5533 279.786 21.404 279.095 21.404C278.068 21.404 277.261 21.7353 276.673 22.398C276.085 23.0607 275.791 23.9753 275.791 25.142C275.791 26.3087 276.08 27.2187 276.659 27.872C277.238 28.5253 278.008 28.852 278.969 28.852C279.94 28.852 280.668 28.5767 281.153 28.026C281.648 27.4753 281.937 26.7427 282.021 25.828H279.361V24.68H283.519V30H282.161L282.035 28.558C281.708 29.0713 281.298 29.468 280.803 29.748C280.308 30.028 279.664 30.168 278.871 30.168ZM285.32 30V20.2H286.804V28.824H291.256V30H285.32ZM292.853 30V20.2H299.083V21.404H294.337V24.456H298.663V25.632H294.337V28.796H299.083V30H292.853Z" fill="#FF1B1B"/>
<path d="M123 24C123 27.3137 125.686 30 129 30C131.612 30 133.835 28.3304 134.659 26H129V22H138.805V26H138.8C137.873 30.5645 133.838 34 129 34C123.477 34 119 29.5228 119 24C119 18.4772 123.477 14 129 14C132.445 14 135.483 15.742 137.282 18.3932L134.004 20.6881C132.93 19.0681 131.09 18 129 18C125.686 18 123 20.6863 123 24Z" fill="#FF1B1B"/>
</svg>
