<svg width="249" height="48" viewBox="0 0 249 48" fill="none" xmlns="http://www.w3.org/2000/svg">
<path d="M76.784 13.56C78.8747 13.56 80.656 13.8053 82.128 14.296C83.6 14.7867 85.0613 15.6613 86.512 16.92L83.248 21.56C82.288 20.664 81.3067 20.024 80.304 19.64C79.3227 19.2347 78.224 19.032 77.008 19.032C76.2613 19.032 75.664 19.1493 75.216 19.384C74.768 19.5973 74.544 19.8853 74.544 20.248C74.544 20.4827 74.7573 20.664 75.184 20.792C75.6107 20.92 76.3573 21.08 77.424 21.272C80.5173 21.8267 82.736 22.6693 84.08 23.8C85.4453 24.9093 86.128 26.4773 86.128 28.504C86.128 29.9547 85.712 31.192 84.88 32.216C84.048 33.24 82.9173 34.0187 81.488 34.552C80.0587 35.064 78.4587 35.32 76.688 35.32C74.192 35.32 72.1973 35.0853 70.704 34.616C69.2107 34.1467 67.7493 33.3893 66.32 32.344L69.52 27.288C70.416 28.1627 71.3973 28.8133 72.464 29.24C73.5307 29.6453 74.7573 29.848 76.144 29.848C77.7013 29.848 78.48 29.528 78.48 28.888C78.48 28.5467 78.2347 28.2907 77.744 28.12C77.2533 27.9493 76.4533 27.768 75.344 27.576C73.7227 27.2773 72.336 26.936 71.184 26.552C70.0533 26.168 69.0507 25.5173 68.176 24.6C67.3227 23.6827 66.896 22.424 66.896 20.824C66.896 19.3733 67.28 18.104 68.048 17.016C68.816 15.928 69.936 15.0853 71.408 14.488C72.9013 13.8693 74.6933 13.56 76.784 13.56ZM104.992 31.064C105.354 31.064 105.621 31.0213 105.792 30.936L105.216 34.68C104.49 35.1067 103.701 35.32 102.847 35.32C101.546 35.32 100.458 35.096 99.5835 34.648C98.7088 34.1787 98.1222 33.5067 97.8235 32.632C97.3328 33.464 96.6075 34.1253 95.6475 34.616C94.7088 35.0853 93.5355 35.32 92.1275 35.32C90.4635 35.32 89.2262 35 88.4155 34.36C87.6048 33.6987 87.1995 32.7493 87.1995 31.512C87.1995 30.168 87.6795 29.1013 88.6395 28.312C89.5995 27.5013 91.1995 26.8507 93.4395 26.36L96.6075 25.656V25.016C96.6075 24.5253 96.4795 24.1413 96.2235 23.864C95.9888 23.5867 95.6368 23.448 95.1675 23.448C94.6555 23.448 94.2502 23.5973 93.9515 23.896C93.6528 24.1733 93.4928 24.6747 93.4715 25.4L87.3915 24.472C87.5622 22.6373 88.3302 21.2187 89.6955 20.216C91.0608 19.192 93.0235 18.68 95.5835 18.68C98.4208 18.68 100.512 19.224 101.856 20.312C103.221 21.4 103.904 23.0533 103.904 25.272V29.752C103.904 30.6267 104.266 31.064 104.992 31.064ZM95.2315 31.32C95.6368 31.32 95.9675 31.192 96.2235 30.936C96.4795 30.6587 96.6075 30.264 96.6075 29.752V28.216L95.5515 28.536C95.1035 28.664 94.7515 28.8773 94.4955 29.176C94.2395 29.4533 94.1115 29.7947 94.1115 30.2C94.1115 30.5627 94.2182 30.84 94.4315 31.032C94.6448 31.224 94.9115 31.32 95.2315 31.32ZM118.672 35H109.52L104.367 19H111.984L113.456 26.872L114.032 30.68H114.16L114.736 26.84L116.208 19H123.824L118.672 35ZM137.484 35H128.332L123.18 19H130.796L132.268 26.872L132.844 30.68H132.972L133.548 26.84L135.02 19H142.636L137.484 35ZM156.937 33.208C156.211 35.3627 155.422 37.0587 154.569 38.296C153.715 39.5547 152.691 40.4613 151.497 41.016C150.302 41.592 148.83 41.88 147.081 41.88C145.097 41.88 143.454 41.528 142.152 40.824L143.497 36.184C143.838 36.376 144.211 36.5147 144.617 36.6C145.022 36.6853 145.598 36.728 146.345 36.728C147.027 36.728 147.529 36.664 147.849 36.536C148.19 36.408 148.425 36.184 148.553 35.864L148.649 35.608L146.633 30.904L142.056 19H150.089L151.529 27.256L152.137 31L152.841 27.224L154.441 19H161.641L156.937 33.208ZM175.425 34.232C174.891 34.552 174.166 34.808 173.249 35C172.353 35.2133 171.489 35.32 170.657 35.32C168.353 35.32 166.635 34.8827 165.505 34.008C164.374 33.112 163.809 31.6507 163.809 29.624V23.96H161.345V19H163.809V15.608L171.169 13.56V19H175.201V23.96H171.169V28.472C171.169 29.1973 171.318 29.72 171.617 30.04C171.937 30.3387 172.427 30.488 173.089 30.488C173.878 30.488 174.55 30.3493 175.105 30.072L175.425 34.232ZM180.491 17.976C179.04 17.976 178.005 17.7413 177.387 17.272C176.789 16.8027 176.491 16.0133 176.491 14.904C176.491 13.7947 176.789 13.0053 177.387 12.536C178.005 12.0667 179.04 11.832 180.491 11.832C181.941 11.832 182.965 12.0667 183.562 12.536C184.181 13.0053 184.491 13.7947 184.491 14.904C184.491 16.0133 184.181 16.8027 183.562 17.272C182.965 17.7413 181.941 17.976 180.491 17.976ZM184.171 35H176.811V19H184.171V35ZM209.022 18.68C210.601 18.68 211.828 19.1493 212.702 20.088C213.598 21.0267 214.046 22.3493 214.046 24.056V35H206.686V25.976C206.686 25.272 206.601 24.792 206.43 24.536C206.26 24.2587 205.972 24.12 205.566 24.12C205.033 24.12 204.638 24.3227 204.382 24.728C204.148 25.1333 204.03 25.7627 204.03 26.616V35H196.67V25.976C196.67 25.272 196.585 24.792 196.414 24.536C196.244 24.2587 195.956 24.12 195.55 24.12C195.017 24.12 194.622 24.3227 194.366 24.728C194.132 25.1333 194.014 25.7627 194.014 26.616V35H186.654V19H193.278L193.438 22.488C193.908 21.2507 194.612 20.312 195.55 19.672C196.489 19.0107 197.641 18.68 199.006 18.68C200.222 18.68 201.225 18.9573 202.014 19.512C202.825 20.0667 203.401 20.856 203.742 21.88C204.254 20.8347 204.948 20.0453 205.822 19.512C206.718 18.9573 207.785 18.68 209.022 18.68ZM233.266 26.488C233.266 27.2987 233.213 27.9387 233.106 28.408H222.93C223.037 29.1973 223.261 29.7307 223.602 30.008C223.943 30.2853 224.455 30.424 225.138 30.424C226.183 30.424 226.823 29.9653 227.058 29.048L232.978 30.648C232.615 32.184 231.719 33.3467 230.29 34.136C228.882 34.9253 227.165 35.32 225.138 35.32C222.109 35.32 219.805 34.6053 218.226 33.176C216.669 31.7467 215.89 29.688 215.89 27C215.89 24.3547 216.658 22.3067 218.194 20.856C219.751 19.4053 221.938 18.68 224.754 18.68C227.506 18.68 229.607 19.384 231.058 20.792C232.53 22.2 233.266 24.0987 233.266 26.488ZM224.786 23.544C224.231 23.544 223.805 23.704 223.506 24.024C223.207 24.344 223.015 24.8987 222.93 25.688H226.386C226.322 24.9627 226.162 24.4293 225.906 24.088C225.671 23.7253 225.298 23.544 224.786 23.544ZM246.642 18.68C247.389 18.68 247.944 18.808 248.306 19.064L247.698 25.08C247.506 24.9307 247.229 24.8133 246.866 24.728C246.504 24.6213 246.109 24.568 245.682 24.568C244.701 24.568 243.922 24.8027 243.346 25.272C242.792 25.7413 242.514 26.424 242.514 27.32V35H235.154V19H241.778L241.938 23C242.706 20.12 244.274 18.68 246.642 18.68Z" fill="#4299E1"/>
<path d="M23.9999 4.00256C12.9556 4.00256 4.00244 12.9557 4.00244 24C4.00244 35.0444 12.9556 43.9975 23.9999 43.9975C35.0443 43.9975 43.9974 35.0444 43.9974 24C44 12.9546 35.0454 3.99992 23.9999 4.00256ZM32.3301 25.1303C32.0329 25.4343 31.625 25.6044 31.1998 25.6025H26.4V24C26.4 25.3254 25.3253 26.4001 23.9999 26.4001C22.6746 26.4001 21.5998 25.3254 21.5998 24C21.5998 22.6747 22.6746 21.6 23.9999 21.6H22.3975V11.2028C22.399 10.3182 23.1157 9.60186 23.9999 9.59997C24.8826 9.60564 25.5971 10.3197 25.6024 11.2028V21.6H23.9999C25.3253 21.6 26.4 22.6747 26.4 24V22.3976H31.1998C32.0843 22.3991 32.8007 23.1158 32.8026 24C32.8045 24.4253 32.634 24.8328 32.3301 25.1303Z" fill="#57A4FF"/>
<path d="M23.9999 4.00256C12.9556 4.00256 4.00244 12.9557 4.00244 24C4.00244 35.0444 12.9556 43.9975 23.9999 43.9975C35.0443 43.9975 43.9974 35.0444 43.9974 24C44 12.9546 35.0454 3.99992 23.9999 4.00256ZM32.3301 25.1303C32.0329 25.4343 31.625 25.6044 31.1998 25.6025H26.4V24C26.4 25.3254 25.3253 26.4001 23.9999 26.4001C22.6746 26.4001 21.5998 25.3254 21.5998 24C21.5998 22.6747 22.6746 21.6 23.9999 21.6H22.3975V11.2028C22.399 10.3182 23.1157 9.60186 23.9999 9.59997C24.8826 9.60564 25.5971 10.3197 25.6024 11.2028V21.6H23.9999C25.3253 21.6 26.4 22.6747 26.4 24V22.3976H31.1998C32.0843 22.3991 32.8007 23.1158 32.8026 24C32.8045 24.4253 32.634 24.8328 32.3301 25.1303Z" fill="#57A4FF"/>
<path d="M24 0C10.7453 0 0 10.7453 0 24C0 37.2547 10.7453 48 24 48C37.2547 48 48 37.2547 48 24C47.9849 10.7514 37.2486 0.015121 24 0ZM24 46.4516C11.6004 46.4516 1.54839 36.3996 1.54839 24C1.54839 11.6004 11.6004 1.54839 24 1.54839C36.3996 1.54839 46.4516 11.6004 46.4516 24C46.4376 36.3939 36.3939 46.4376 24 46.4516Z" fill="#4299E1"/>
<path d="M38.2628 9.8113C38.2507 9.79731 38.2465 9.77955 38.2333 9.76669C38.2205 9.75346 38.2027 9.7493 38.1887 9.73721C30.3462 1.91589 17.6537 1.91589 9.81118 9.73721C9.79719 9.7493 9.77942 9.75346 9.76657 9.76669C9.75334 9.77955 9.74918 9.79731 9.73708 9.8113C1.91576 17.6538 1.91576 30.3463 9.73708 38.1888C9.74918 38.2028 9.75334 38.2206 9.76657 38.2334C9.77942 38.2467 9.79719 38.2508 9.81118 38.2629C17.6537 46.0842 30.3462 46.0842 38.1887 38.2629C38.2027 38.2508 38.2205 38.2467 38.2333 38.2334C38.2465 38.2206 38.2507 38.2028 38.2628 38.1888C46.0841 30.3463 46.0841 17.6538 38.2628 9.8113ZM41.0322 24.7743H42.5613C42.3814 29.1631 40.6462 33.3448 37.6666 36.572L36.0411 34.9465C35.7372 34.6532 35.2545 34.6573 34.9558 34.956C34.6572 35.2546 34.653 35.7373 34.9464 36.0413L36.5719 37.6668C33.3447 40.6464 29.163 42.3815 24.7741 42.5614V41.0323C24.7741 40.6048 24.4275 40.2581 23.9999 40.2581C23.5724 40.2581 23.2257 40.6048 23.2257 41.0323V42.5614C18.8369 42.3815 14.6552 40.6464 11.428 37.6668L13.0535 36.0413C13.3468 35.7373 13.3427 35.2546 13.044 34.956C12.7454 34.6573 12.2627 34.6532 11.9587 34.9465L10.3332 36.572C7.35364 33.3448 5.61851 29.1631 5.43857 24.7743H6.96768C7.39522 24.7743 7.74187 24.4276 7.74187 24.0001C7.74187 23.5725 7.39522 23.2259 6.96768 23.2259H5.43857C5.61851 18.837 7.35364 14.6553 10.3332 11.4281L11.9587 13.0536C12.2627 13.347 12.7454 13.3428 13.044 13.0442C13.3427 12.7455 13.3468 12.2628 13.0535 11.9589L11.428 10.3334C14.6552 7.35376 18.8369 5.61863 23.2257 5.43869V6.9678C23.2257 7.39535 23.5724 7.742 23.9999 7.742C24.4275 7.742 24.7741 7.39535 24.7741 6.9678V5.43869C29.163 5.61863 33.3447 7.35376 36.5719 10.3334L34.9464 11.9589C34.7449 12.1535 34.6644 12.4412 34.7351 12.7119C34.8061 12.9825 35.0175 13.1939 35.2881 13.2649C35.5588 13.3356 35.8465 13.2551 36.0411 13.0536L37.6666 11.4281C40.6462 14.6553 42.3814 18.837 42.5613 23.2259H41.0322C40.6047 23.2259 40.258 23.5725 40.258 24.0001C40.258 24.4276 40.6047 24.7743 41.0322 24.7743Z" fill="#3182CE"/>
<path d="M30.9677 21.6775H26.3226V11.613C26.3226 10.3304 25.2826 9.29041 24 9.29041C22.7174 9.29041 21.6774 10.3304 21.6774 11.613V21.6775C21.6804 21.7588 21.6967 21.8389 21.7254 21.9153C20.6035 23.1322 20.6416 25.0177 21.812 26.1881C22.9824 27.3585 24.8679 27.3967 26.0848 26.2747C26.1612 26.3034 26.2413 26.3197 26.3226 26.3227H30.9677C32.2504 26.3227 33.2903 25.2827 33.2903 24.0001C33.2903 22.7175 32.2504 21.6775 30.9677 21.6775ZM23.2258 11.613C23.2258 11.1854 23.5724 10.8388 24 10.8388C24.4275 10.8388 24.7742 11.1854 24.7742 11.613V20.9033H23.2258V11.613ZM24 25.5485C23.1449 25.5485 22.4516 24.8552 22.4516 24.0001C22.4516 23.145 23.1449 22.4517 24 22.4517C24.8551 22.4517 25.5484 23.145 25.5484 24.0001C25.5484 24.8552 24.8551 25.5485 24 25.5485ZM30.9677 24.7743H27.0968V23.2259H30.9677C31.3953 23.2259 31.7419 23.5726 31.7419 24.0001C31.7419 24.4276 31.3953 24.7743 30.9677 24.7743Z" fill="#4299E1"/>
<path d="M14.1623 32.7429L13.3881 33.5171C13.187 33.7114 13.1061 33.9995 13.1772 34.2702C13.2479 34.5408 13.4592 34.7521 13.7299 34.8228C14.0005 34.8939 14.2886 34.813 14.4829 34.6119L15.2571 33.8377C15.5504 33.5338 15.5463 33.051 15.2476 32.7524C14.949 32.4537 14.4663 32.4496 14.1623 32.7429Z" fill="#4299E1"/>
<path d="M39.1434 23.3574C39.1003 23.3283 39.0534 23.3048 39.0039 23.2878C38.96 23.2655 38.9131 23.2496 38.8648 23.2413C38.7139 23.2092 38.5567 23.2254 38.4156 23.2878C38.3219 23.3271 38.2353 23.3819 38.1601 23.4504C38.0187 23.5985 37.9386 23.7951 37.9355 24C37.9367 24.1013 37.9579 24.2011 37.9975 24.2941C38.0369 24.3879 38.0921 24.4744 38.1601 24.5497C38.3816 24.7712 38.7158 24.8358 39.0039 24.7122C39.0976 24.6729 39.1842 24.6181 39.2594 24.5497C39.3275 24.4744 39.3827 24.3879 39.422 24.2941C39.4654 24.2023 39.4866 24.1017 39.484 24C39.4809 23.7951 39.4008 23.5985 39.2594 23.4504C39.2228 23.4171 39.1838 23.3861 39.1434 23.3574Z" fill="#4299E1"/>
</svg>
