<svg width="22" height="20" viewBox="0 0 22 20" fill="none" xmlns="http://www.w3.org/2000/svg">
<path fill-rule="evenodd" clip-rule="evenodd" d="M11.0122 3.57169L9.92522 2.48469C7.77734 0.336808 4.29493 0.336808 2.14705 2.48469C-0.000838161 4.63258 -0.000838041 8.11498 2.14705 10.2629L10.9859 19.1017L10.9877 19.0999L11.014 19.1262L19.8528 10.2874C22.0007 8.13952 22.0007 4.65711 19.8528 2.50923C17.705 0.361345 14.2226 0.361345 12.0747 2.50923L11.0122 3.57169ZM10.9877 16.2715L15.9239 11.3352L17.3747 9.9342L17.3762 9.93565L18.4386 8.87319C19.8055 7.50635 19.8055 5.29028 18.4386 3.92344C17.0718 2.55661 14.8557 2.55661 13.4889 3.92344L11.0133 6.39904L11.006 6.3918L11.005 6.39287L8.51101 3.89891C7.14417 2.53207 4.92809 2.53207 3.56126 3.89891C2.19442 5.26574 2.19442 7.48182 3.56126 8.84865L6.10068 11.3881L6.10248 11.3863L10.9877 16.2715Z" fill="#828282"/>
</svg>
