<svg width="136" height="28" viewBox="0 0 136 28" fill="none" xmlns="http://www.w3.org/2000/svg">
<g clip-path="url(#clip0)">
<path d="M11.1466 6.1886L10.7077 8.93909C10.4757 8.92475 10.243 8.92475 10.011 8.93909C6.96661 8.93909 4.70246 10.8301 4.17997 14.2957L2.91204 22.1965H0L2.50798 6.33988H5.29462L4.87663 9.00098C6.19331 7.15127 8.35993 6.1886 11.1466 6.1886Z" fill="url(#paint0_linear)"/>
<path d="M25.7764 15.224H12.7698C12.6931 18.0088 14.6717 19.8654 17.8554 19.8654C19.6938 19.8943 21.4693 19.2047 22.7947 17.9469L24.1114 19.8035C23.215 20.6504 22.1576 21.3136 21.0001 21.755C19.8427 22.1964 18.6081 22.4072 17.3677 22.3752C12.1846 22.3752 9.26557 18.9921 10.011 14.2682C10.3281 12.0409 11.445 10 13.1583 8.51711C14.8717 7.03422 17.0676 6.20791 19.3463 6.1886C23.986 6.1886 26.7657 9.47544 25.9994 14.3507C25.9576 14.5982 25.874 14.9558 25.7764 15.224ZM13.0693 13.1611H23.4008C23.4641 12.563 23.3942 11.9586 23.196 11.39C22.9978 10.8214 22.676 10.3024 22.2533 9.86944C21.8306 9.43647 21.317 9.09993 20.7487 8.8834C20.1804 8.66687 19.5709 8.57557 18.9631 8.61591C17.6123 8.62097 16.3018 9.07079 15.2392 9.89409C14.1767 10.7174 13.4229 11.8671 13.0972 13.1611H13.0693Z" fill="url(#paint1_linear)"/>
<path d="M43.6596 13.0649L42.2176 22.1965H39.3125L40.7058 13.4018C41.2004 10.2938 39.8628 8.76724 37.1041 8.76724C34.0109 8.76724 31.7258 10.5894 31.1824 14.0276L29.8867 22.1965H26.9746L29.4826 6.33993H32.2692L31.8861 8.73286C32.6745 7.89686 33.6351 7.23723 34.7034 6.79838C35.7717 6.35952 36.9229 6.15162 38.0794 6.18865C41.9877 6.18865 44.3981 8.4028 43.6596 13.0649Z" fill="url(#paint2_linear)"/>
<path d="M54.9735 21.2681C53.8912 22.0111 52.5992 22.3985 51.2812 22.3752C48.0417 22.3752 46.4742 20.608 46.9758 17.4106L48.3691 8.70527H45.6243L45.9796 6.33985H48.7035L49.2539 2.90173H52.1798L51.6365 6.33985H56.2414L55.8652 8.70527H51.2603L49.8669 17.2937C49.6022 18.9921 50.3616 19.9548 51.9569 19.9548C52.8124 19.9522 53.6464 19.6906 54.3465 19.2053L54.9735 21.2681Z" fill="url(#paint3_linear)"/>
<path d="M70.7667 12.6247L69.2549 22.1964H66.4683L66.8027 20.0992C65.6044 21.5363 63.6817 22.3752 61.1667 22.3752C57.5301 22.3752 55.5307 20.4636 55.9627 17.7063C56.4294 15.1689 58.394 13.0648 63.1801 13.0648H67.785L67.8756 12.4941C68.2587 10.0737 67.0535 8.6709 64.1763 8.6709C62.2545 8.67676 60.3822 9.27275 58.819 10.3762L57.9412 8.25145C59.9962 6.8794 62.4269 6.15967 64.9078 6.18858C69.2967 6.18858 71.4494 8.28583 70.7667 12.6247ZM67.1092 17.3487L67.4576 15.1346H62.9711C60.0939 15.1346 59.1046 16.2416 58.8886 17.5894C58.6378 19.1778 59.8152 20.1611 62.0306 20.1611C63.0575 20.2 64.0754 19.958 64.9716 19.4617C65.8679 18.9653 66.6077 18.2341 67.1092 17.3487Z" fill="url(#paint4_linear)"/>
<path d="M76.3401 0H79.2452L75.7619 22.1965H72.8499L76.3401 0Z" fill="url(#paint5_linear)"/>
<path d="M82.9723 0H85.8844L82.4011 22.1965H79.489L82.9723 0Z" fill="url(#paint6_linear)"/>
<path d="M103.998 14.2681C103.702 16.5193 102.582 18.5861 100.85 20.0792C99.118 21.5724 96.8925 22.389 94.5927 22.3752C92.3215 22.3752 90.4545 21.5088 89.3956 19.8035L88.0998 28H85.1877L88.6083 6.33983H91.395L90.9979 8.85653C91.7682 8.00089 92.7166 7.31954 93.7783 6.85908C94.84 6.39861 95.9899 6.16989 97.1494 6.18856C101.845 6.18856 104.764 9.42038 103.998 14.2681ZM101.058 14.2681C101.587 10.9194 99.6016 8.70526 96.5085 8.70526C94.9585 8.72736 93.4692 9.30314 92.3164 10.326C91.1636 11.3488 90.4254 12.7493 90.2385 14.2681C89.7021 17.6512 91.6876 19.8654 94.7459 19.8654C96.3071 19.8478 97.8085 19.2701 98.9699 18.2402C100.131 17.2102 100.873 15.7984 101.058 14.2681Z" fill="url(#paint7_linear)"/>
<path d="M116.126 6.1886L115.681 8.93909C115.449 8.92436 115.216 8.92436 114.984 8.93909C111.863 8.93909 109.627 10.8232 109.076 14.2888L107.829 22.1896H104.924L107.425 6.333H110.212L109.787 8.9941C111.152 7.15127 113.305 6.1886 116.126 6.1886Z" fill="url(#paint8_linear)"/>
<path d="M135.299 15.4922L131.119 10.9814C131.089 10.9548 131.051 10.9401 131.011 10.9401C130.971 10.9401 130.932 10.9548 130.903 10.9814L125.768 15.6366C125.745 15.6539 125.728 15.678 125.719 15.7056C125.71 15.7331 125.71 15.7627 125.72 15.7901C125.729 15.8175 125.747 15.8413 125.77 15.8582C125.794 15.875 125.823 15.8841 125.852 15.8841L128.799 15.8429C128.571 16.9147 128.054 17.9057 127.301 18.7102C126.214 19.8851 124.725 20.6201 123.121 20.7731C122.312 20.8493 121.496 20.7584 120.725 20.5062C119.954 20.2541 119.244 19.8462 118.641 19.3085C118.016 18.7254 117.521 18.0186 117.191 17.2342C116.861 16.4498 116.703 15.6055 116.726 14.7564C116.571 15.654 116.602 16.5732 116.816 17.4588C117.028 18.3437 117.43 19.1736 117.993 19.893C118.572 20.6276 119.303 21.2303 120.139 21.6602C121.018 22.1092 121.981 22.3737 122.968 22.4372C124.015 22.5065 125.065 22.3734 126.061 22.0452C127.111 21.7039 128.089 21.1748 128.945 20.4843C130.452 19.2846 131.544 17.6534 132.073 15.8154L135.152 15.7466C135.184 15.7505 135.216 15.7452 135.244 15.7311C135.273 15.7171 135.296 15.695 135.312 15.6678C135.327 15.6405 135.335 15.6093 135.332 15.578C135.33 15.5467 135.318 15.5169 135.299 15.4922Z" fill="url(#paint9_linear)"/>
<path d="M131.328 11.1876L131.139 10.9813C131.11 10.9548 131.071 10.94 131.031 10.94C130.992 10.94 130.953 10.9548 130.923 10.9813L130.763 11.1326C130.458 10.568 130.057 10.0588 129.579 9.62673C128.977 9.08924 128.269 8.6814 127.499 8.42922C126.729 8.17704 125.914 8.08606 125.106 8.1621C123.502 8.31509 122.013 9.05016 120.926 10.225C120.165 11.0165 119.637 11.9986 119.401 13.0648L122.341 13.0167C122.37 13.0188 122.397 13.0294 122.42 13.0471C122.443 13.0648 122.46 13.0889 122.469 13.1162C122.478 13.1435 122.479 13.1728 122.471 13.2004C122.463 13.228 122.446 13.2526 122.424 13.2711L117.29 17.9195C117.277 17.9341 117.261 17.9458 117.243 17.9538C117.225 17.9619 117.205 17.966 117.185 17.966C117.166 17.966 117.146 17.9619 117.128 17.9538C117.11 17.9458 117.094 17.9341 117.081 17.9195L116.893 17.7201L112.922 13.4155C112.904 13.3922 112.892 13.3644 112.889 13.3352C112.886 13.306 112.892 13.2765 112.905 13.2501C112.918 13.2237 112.938 13.2013 112.963 13.1856C112.988 13.1699 113.017 13.1614 113.047 13.1611L116.147 13.113C116.352 12.3747 116.652 11.6653 117.039 11.002C118.169 9.06159 119.977 7.59466 122.125 6.87624C123.123 6.55145 124.176 6.4184 125.225 6.4843C126.209 6.55003 127.17 6.81449 128.046 7.26131C128.836 7.66202 129.533 8.21946 130.094 8.89866C130.655 9.57786 131.068 10.3642 131.307 11.2083L131.328 11.1876Z" fill="url(#paint10_linear)"/>
</g>
<defs>
<linearGradient id="paint0_linear" x1="-5.03686" y1="11.4833" x2="132.145" y2="47.4415" gradientUnits="userSpaceOnUse">
<stop offset="0.25" stop-color="#2D9CBD"/>
<stop offset="0.42" stop-color="#2E9CC3"/>
<stop offset="1" stop-color="#329BD6"/>
</linearGradient>
<linearGradient id="paint1_linear" x1="-89.4321" y1="207.104" x2="3110.78" y2="1037.28" gradientUnits="userSpaceOnUse">
<stop offset="0.25" stop-color="#2D9CBD"/>
<stop offset="0.42" stop-color="#2E9CC3"/>
<stop offset="1" stop-color="#329BD6"/>
</linearGradient>
<linearGradient id="paint2_linear" x1="-52.9095" y1="120.35" x2="3242.89" y2="1015.94" gradientUnits="userSpaceOnUse">
<stop offset="0.25" stop-color="#2D9CBD"/>
<stop offset="0.42" stop-color="#2E9CC3"/>
<stop offset="1" stop-color="#329BD6"/>
</linearGradient>
<linearGradient id="paint3_linear" x1="18.4444" y1="-23.3887" x2="2209.19" y2="285.675" gradientUnits="userSpaceOnUse">
<stop offset="0.25" stop-color="#2D9CBD"/>
<stop offset="0.42" stop-color="#2E9CC3"/>
<stop offset="1" stop-color="#329BD6"/>
</linearGradient>
<linearGradient id="paint4_linear" x1="24.7326" y1="-46.0979" x2="3007.57" y2="668.472" gradientUnits="userSpaceOnUse">
<stop offset="0.25" stop-color="#2D9CBD"/>
<stop offset="0.42" stop-color="#2E9CC3"/>
<stop offset="1" stop-color="#329BD6"/>
</linearGradient>
<linearGradient id="paint5_linear" x1="74.1929" y1="-267.467" x2="1412.64" y2="-167.675" gradientUnits="userSpaceOnUse">
<stop offset="0.25" stop-color="#2D9CBD"/>
<stop offset="0.42" stop-color="#2E9CC3"/>
<stop offset="1" stop-color="#329BD6"/>
</linearGradient>
<linearGradient id="paint6_linear" x1="84.6053" y1="-318.741" x2="1423.11" y2="-218.949" gradientUnits="userSpaceOnUse">
<stop offset="0.25" stop-color="#2D9CBD"/>
<stop offset="0.42" stop-color="#2E9CC3"/>
<stop offset="1" stop-color="#329BD6"/>
</linearGradient>
<linearGradient id="paint7_linear" x1="75.9113" y1="-197.541" x2="3868.68" y2="654.125" gradientUnits="userSpaceOnUse">
<stop offset="0.25" stop-color="#2D9CBD"/>
<stop offset="0.42" stop-color="#2E9CC3"/>
<stop offset="1" stop-color="#329BD6"/>
</linearGradient>
<linearGradient id="paint8_linear" x1="129.793" y1="-311.271" x2="2412.38" y2="102.256" gradientUnits="userSpaceOnUse">
<stop offset="0.25" stop-color="#2D9CBD"/>
<stop offset="0.42" stop-color="#2E9CC3"/>
<stop offset="1" stop-color="#329BD6"/>
</linearGradient>
<linearGradient id="paint9_linear" x1="169" y1="-243.425" x2="3514.39" y2="1162.66" gradientUnits="userSpaceOnUse">
<stop offset="0.25" stop-color="#2D9CBD"/>
<stop offset="0.42" stop-color="#2E9CC3"/>
<stop offset="1" stop-color="#329BD6"/>
</linearGradient>
<linearGradient id="paint10_linear" x1="184.8" y1="-296.393" x2="3495.36" y2="1077.34" gradientUnits="userSpaceOnUse">
<stop offset="0.25" stop-color="#2D9CBD"/>
<stop offset="0.42" stop-color="#2E9CC3"/>
<stop offset="1" stop-color="#329BD6"/>
</linearGradient>
<clipPath id="clip0">
<rect width="135.333" height="28" fill="white"/>
</clipPath>
</defs>
</svg>
