<svg width="50" height="50" viewBox="0 0 50 50" fill="none" xmlns="http://www.w3.org/2000/svg">
<path d="M25 50C38.8071 50 50 38.8071 50 25C50 11.1929 38.8071 0 25 0C11.1929 0 0 11.1929 0 25C0 38.8071 11.1929 50 25 50Z" fill="#4299E1" fill-opacity="0.1"/>
<path d="M43.1904 39.6188C42.1029 38.7594 40.7779 38.1406 39.3404 37.8406L32.4872 36.4656C31.7685 36.3281 31.2497 35.6844 31.2497 34.9344V33.3625C31.6904 32.7437 32.106 31.9219 32.5404 31.0625C32.8779 30.3969 33.3872 29.3937 33.6404 29.1344C35.0279 27.7406 36.3685 26.175 36.7841 24.1562C37.1716 22.2625 36.7904 21.2688 36.3435 20.4688C36.3435 18.4719 36.281 15.9719 35.8091 14.1531C35.7529 11.6906 35.306 10.3063 34.181 9.09375C33.3872 8.23438 32.2185 8.03437 31.2779 7.875C30.9091 7.8125 30.3997 7.725 30.2122 7.625C28.5466 6.725 26.8997 6.28438 24.9341 6.25C20.8185 6.41875 15.7591 9.0375 14.0654 13.7063C13.5404 15.1281 13.5935 17.4625 13.6372 19.3375L13.5966 20.4656C13.1935 21.2531 12.7966 22.2531 13.1872 24.1531C13.5997 26.175 14.9404 27.7437 16.3529 29.1562C16.5841 29.3937 17.106 30.4062 17.4497 31.075C17.8904 31.9313 18.3091 32.75 18.7497 33.3656V34.9375C18.7497 35.6844 18.2279 36.3281 17.506 36.4688L10.6466 37.8437C9.21848 38.1469 7.89348 38.7594 6.80911 39.6188C6.47161 39.8906 6.25911 40.2875 6.22473 40.7188C6.19036 41.15 6.33411 41.5719 6.62473 41.8937C11.2935 47.0438 17.9904 50 24.9997 50C32.0091 50 38.7091 47.0469 43.3747 41.8937C43.6654 41.5719 43.8122 41.1469 43.7747 40.7156C43.7404 40.2844 43.5279 39.8875 43.1904 39.6188Z" fill="#4299E1"/>
</svg>
